<svg id="Capa_14" data-name="Capa 14" xmlns="http://www.w3.org/2000/svg" viewBox="0 0 447.63 132.8"><defs><style>.cls-1{fill:#fff;}</style></defs><title>Logonlanco</title><path class="cls-1" d="M433.06,274.14c-15.55.4-36.06-12.66-35.59-36.37.38-19.39,17.85-35.08,37.88-34,18.51,1,34.22,15.24,34,35.68C469.13,258.94,453.05,274.31,433.06,274.14Zm.22-12.45c12.64,0,21.49-9.16,21.63-22.46.13-13.08-9.17-23.14-21.4-23.16-12.55,0-21.58,9.76-21.59,23.39C411.92,252.32,420.89,261.66,433.28,261.69Z" transform="translate(-21.71 -177.47)"/><path class="cls-1" d="M378.6,242l18.2,30.14c-1.18.14-1.89.31-2.61.31-3.66,0-7.32,0-11,0a3.29,3.29,0,0,1-3.34-1.91c-5.15-9.23-10.39-18.41-15.61-27.61-.26-.46-.59-.89-1.27-1.92-.09,1.38-.18,2.16-.18,2.94,0,8.56-.05,17.12.06,25.68,0,2.24-.68,3-2.94,2.9-3.63-.17-7.28,0-11.13,0-.09-1.81-.23-3.35-.23-4.88,0-19.85.09-39.7.05-59.55,0-2.18.51-3,2.84-2.93,7.93.26,15.87.13,23.79.56A25.39,25.39,0,0,1,384,208c7.31,3.25,10.52,9.72,9.67,18.61a17.23,17.23,0,0,1-13.08,14.75C380.05,241.47,379.55,241.66,378.6,242ZM363,215.44c-.1,1.34-.18,1.88-.18,2.41,0,4.91,0,9.81.11,14.71,0,.51,1.12,1.41,1.72,1.41a52.56,52.56,0,0,0,8.13-.55c5.43-.9,7.73-4.41,6.88-9.92-.46-3-1.69-5.59-4.75-6.3C371.12,216.33,367.18,216,363,215.44Z" transform="translate(-21.71 -177.47)"/><path class="cls-1" d="M72.44,207.16h14c0,4.62,0,9.1,0,13.59,0,9.57,0,19.14.22,28.7.14,5.38,1.9,10.26,7.24,12.61,5.65,2.49,11.44,2.36,16.76-.95,3.76-2.35,5.35-6.27,5.63-10.53.33-5,.29-10,.31-14.93,0-9.4,0-18.81,0-28.43h14v8.65c0,11.29,0,22.58-.06,33.87,0,6-1.17,11.73-4.78,16.75-3.8,5.27-9.28,7.82-15.39,8.81a47.45,47.45,0,0,1-21.92-1.08c-8.77-2.7-15.2-10.12-15.53-19.26-.45-13.05-.37-26.13-.5-39.2C72.41,213,72.44,210.18,72.44,207.16Z" transform="translate(-21.71 -177.47)"/><path class="cls-1" d="M63.41,213.58l-7.6,8.06c-4.85-5.43-9.53-6.81-15.15-4.61-5.42,2.13-6.92,8.55-2.38,12.14,3.34,2.64,7.45,4.35,11.31,6.3,4.33,2.18,8.57,4.48,11.87,8.11a18.65,18.65,0,0,1-5.35,29.23c-9.76,5.09-20,4.64-29.56-1.1-1.8-1.07-3.16-2.93-4.54-4.59a2.29,2.29,0,0,1,0-2.2c2.11-2.57,4.39-5,6.67-7.54,1,1.3,1.81,2.53,2.79,3.6,4.11,4.5,12.26,5.36,17.42,2.2,3.87-2.37,5.09-9.26,1.27-12-2.56-1.87-5.26-3.55-8-5.17-4.13-2.47-8.45-4.64-12.49-7.24-10.36-6.66-10.78-23,1.73-30,7.88-4.41,22.69-5,29.54,2.13C61.83,211.83,62.7,212.81,63.41,213.58Z" transform="translate(-21.71 -177.47)"/><path class="cls-1" d="M271.2,274h-43l-.45-.57a14.14,14.14,0,0,1,2.37-2.71c2-1.36,4.07-2.48,6.14-3.65,3-1.71,6.32-1.25,9.57-1.17,1,0,2-.14,2.93-.12a49.18,49.18,0,0,1,7.09.27,55.45,55.45,0,0,1,6.53,2,8.2,8.2,0,0,1,4.88,3.23c.81,1.16,2.67,1.59,4.05,2.35Z" transform="translate(-21.71 -177.47)"/><path class="cls-1" d="M417.27,294l-5.56,11.81a15,15,0,0,1-1.23,2.51,2.88,2.88,0,0,1-1.73,1.12c-.34,0-1-.87-1.12-1.44-.91-4.1-1.71-8.21-2.56-12.32a2.34,2.34,0,0,0-.88-1.43c-1,4.18-2,8.36-3,12.54-.76,3-.78,3-4.17,2.6a15.89,15.89,0,0,1,.31-2.18c1.49-5.31,3.07-10.6,4.5-15.93a2.55,2.55,0,0,1,2.91-2.25c1.77,0,2.25.89,2.49,2.37.61,3.6,1.29,7.18,2,10.77.07.34.21.67.49,1.54l4.29-9.49c.48-1.06.94-2.14,1.44-3.19a3.48,3.48,0,0,1,4.58-1.79,1.67,1.67,0,0,1,.72,1.25c.08,5.83.08,11.67.15,17.51,0,1.23-.52,1.67-1.68,1.65s-1.93-.17-1.9-1.65C417.32,303.47,417.27,299,417.27,294Z" transform="translate(-21.71 -177.47)"/><path class="cls-1" d="M242.27,294.24c-.35,3-.65,5.48-1,8-.2,1.62-.35,3.24-.64,4.84-.5,2.81-.55,2.81-3.84,2.19.34-2.94.65-5.91,1-8.88s.74-5.85,1.28-8.74c.17-.9.75-2.22,1.42-2.41a3.17,3.17,0,0,1,4.13,1.54c2.11,3.89,4.43,7.66,6.68,11.48.27.44.6.84,1.12,1.55.59-4.23,1.15-8.09,1.66-12,.39-3,.45-3,3.78-2.46-.28,2.49-.54,5-.85,7.5-.42,3.39-.8,6.78-1.37,10.15-.16.9-.77,2.19-1.48,2.44a2.7,2.7,0,0,1-3.57-1.24c-2.39-4.27-4.95-8.45-7.44-12.66C243,295.24,242.8,295,242.27,294.24Z" transform="translate(-21.71 -177.47)"/><path class="cls-1" d="M115.73,304.08c.57-4.48,1.1-8.38,1.56-12.28.32-2.77.65-3,3.9-2.39-.18,1.7-.33,3.44-.56,5.17-.56,4.24-1.1,8.47-1.79,12.69-.13.81-.76,2-1.37,2.18-1.27.31-2.7.45-3.62-1.19-2.38-4.28-4.92-8.47-7.4-12.69-.18-.3-.39-.6-.87-1.33-.6,4.53-1.12,8.57-1.69,12.59-.41,2.92-.65,3.06-3.88,2.36.36-2.86.73-5.75,1.1-8.64s.73-6,1.24-9c.14-.85.64-2.17,1.21-2.31,1.42-.35,3-.63,4.07,1.18,2.26,4,4.64,7.9,7,11.85C114.86,302.69,115.14,303.12,115.73,304.08Z" transform="translate(-21.71 -177.47)"/><path class="cls-1" d="M65.73,298.53A11.39,11.39,0,0,1,54.1,310.17c-6.09,0-10.17-3.9-10.18-9.7a11.63,11.63,0,0,1,11.72-11.9C61.89,288.58,65.75,292.38,65.73,298.53Zm-4,.14c0-4.26-2.24-6.76-6.18-6.83-4.32-.09-7.64,3.48-7.66,8.22,0,4.14,2.39,6.78,6.27,6.87C58.44,307,61.69,303.49,61.71,298.67Z" transform="translate(-21.71 -177.47)"/><path class="cls-1" d="M292.73,310.15c-6,0-10.06-4-10-9.87a11.64,11.64,0,0,1,11.92-11.71c6,0,9.92,3.86,9.94,9.66A11.39,11.39,0,0,1,292.73,310.15Zm7.8-11.5c0-4.39-2.36-6.88-6.42-6.81-4.3.08-7.51,3.74-7.43,8.48.06,4,2.69,6.68,6.54,6.6C297.49,306.83,300.56,303.36,300.53,298.65Z" transform="translate(-21.71 -177.47)"/><path class="cls-1" d="M451.44,310.15c-5.84-.14-9.93-4.26-9.83-9.89a11.74,11.74,0,0,1,12.24-11.68c5.92.2,9.93,4.24,9.81,9.89A11.65,11.65,0,0,1,451.44,310.15Zm1.79-18.3c-4.31,0-7.55,3.51-7.58,8.3,0,4,2.62,6.79,6.4,6.77,4.32,0,7.55-3.59,7.56-8.35C459.62,294.5,457.14,291.88,453.23,291.85Z" transform="translate(-21.71 -177.47)"/><path class="cls-1" d="M260.62,309.32c.61-4.67,1.17-9.11,1.75-13.56.21-1.61.57-3.22.63-4.84s.9-1.92,2.25-1.87c1.55.05,3.1,0,4.66,0,7.38.2,11.22,5.35,9.43,12.57-1.08,4.33-3.89,7-8.17,7.57C267.85,309.68,264.41,309.32,260.62,309.32Zm8.54-17c-1.69-.4-2.68.31-2.78,2.51s-.54,4.47-.87,6.69c-.79,5.5-.55,5.74,5,4.65,3.6-.7,5.52-4,5.1-8.71C275.32,293.81,273.6,292.37,269.16,292.3Z" transform="translate(-21.71 -177.47)"/><path class="cls-1" d="M213.92,309.43c2.52-4.9,4.82-9.38,7.13-13.86a36.9,36.9,0,0,0,2.09-4.17c.85-2.4,2.62-2.6,4.68-2.24A1.72,1.72,0,0,1,229,290c1.51,6.27,3,12.55,4.39,18.84,0,.11-.12.27-.19.4-3.31.7-3.46.68-4.09-2.4-.25-1.24-.71-1.76-2-1.7a22.69,22.69,0,0,1-3.5-.06c-2.37-.27-4,.36-4.8,2.87S216.07,309.48,213.92,309.43Zm8-7.19c1.76,0,2.84-.06,3.91,0,1.67.12,2.27-.47,1.87-2.18-.52-2.23-.88-4.5-1.45-7.51C224.66,296,223.4,298.81,221.87,302.24Z" transform="translate(-21.71 -177.47)"/><path class="cls-1" d="M394.77,309.28c-3.41.69-3.52.61-4.42-2.44-.15-.5-.38-1.38-.61-1.39a45.81,45.81,0,0,0-7.4-.16c-.73.07-1.6,1.4-1.94,2.33-.95,2.6-2.89,2-5.17,1.8,1.62-3.13,3.13-6.07,4.64-9,1.67-3.24,3.43-6.44,4.95-9.75.89-2,2.44-1.5,3.94-1.59s1.65,1.14,1.89,2.14q2,8,3.87,16.06A19.7,19.7,0,0,1,394.77,309.28Zm-7.26-16.79c-1.55,3.45-2.83,6.32-4.36,9.74,1.83,0,3,0,4.24,0,1.49.06,1.87-.58,1.56-2C388.44,297.91,388.07,295.55,387.51,292.49Z" transform="translate(-21.71 -177.47)"/><path class="cls-1" d="M151.89,309.71l7.51-14.66a37.56,37.56,0,0,1,2.42-4.52,4.16,4.16,0,0,1,2.34-1.43c1.89-.43,2.92.34,3.37,2.41,1.27,5.91,2.77,11.77,4.18,17.64-3.43.89-3.55.74-4.56-2.34a3.21,3.21,0,0,0-2-1.61c-1-.27-2.18,0-3.25-.1-2.47-.32-4.18.39-5,2.95S154.13,309.28,151.89,309.71Zm12.56-16.46-.5,0c-1.24,2.84-2.47,5.67-3.82,8.75H166C165.46,298.94,165,296.09,164.45,293.25Z" transform="translate(-21.71 -177.47)"/><path class="cls-1" d="M329.36,297.55c.44,2.13.06,3.27-2.08,3.1-.62,0-1.25,0-1.87,0-4.69,0-5.06.45-4.5,5.8h7.2c.53,2.29,0,3.3-2.21,3.17a74.45,74.45,0,0,0-7.47,0c-1.65.07-2.28-.51-2.05-2.15.79-5.62,1.51-11.25,2.38-16.86a2.22,2.22,0,0,1,1.55-1.47c3.34-.14,6.68-.07,10.32-.07,0,1.06-.08,1.94-.14,3.18-2.17,0-4.24.06-6.31,0-3.12-.12-2,2.46-2.32,3.88-.42,1.7,1.18,1.4,2.21,1.42C325.84,297.57,327.61,297.55,329.36,297.55Z" transform="translate(-21.71 -177.47)"/><path class="cls-1" d="M95.4,306.89c.08,1.83-.42,2.82-2.47,2.73-3.16-.14-6.32,0-9.79,0,.56-4.42,1.06-8.47,1.58-12.53.27-2.08.47-4.18.9-6.22.14-.65.9-1.64,1.41-1.66,3.47-.15,7-.08,10.46-.08.31,2.27-.19,3.45-2.5,3.16a20,20,0,0,0-2.57,0c-3.19,0-3.09,0-3.6,3.25-.26,1.65.31,2.11,1.8,2.08,1.84-.05,3.69,0,5.53,0,.64,2.18.25,3.3-2,3.11-.85-.07-1.71,0-2.57,0-3.27,0-4.52,1.38-3.86,4.62.11.51,1.12,1.11,1.76,1.18,1.77.19,3.57.11,5.36.15C94.94,306.59,95.08,306.72,95.4,306.89Z" transform="translate(-21.71 -177.47)"/><path class="cls-1" d="M207.62,291.94h-8c-.11-1.42-.58-2.78,1.25-2.82,4.42-.09,8.83,0,13.78,0l-11.94,17.39h9.16c.72,2.72.52,3.07-1.79,3.09-4.47,0-8.95,0-13.94,0l11.81-17Z" transform="translate(-21.71 -177.47)"/><path class="cls-1" d="M424.69,309.16c.35-2.86.69-5.76,1.06-8.66.42-3.24.91-6.47,1.3-9.71.15-1.24.68-1.81,1.94-1.75,1.63.08,3.27,0,4.9.17,3.15.24,5.2,2.15,5.5,5a6.47,6.47,0,0,1-4.21,6.81,9.91,9.91,0,0,1-3.44.51c-1.88-.13-2.5.73-2.55,2.42a23.68,23.68,0,0,1-.33,2.78C428.38,310,428.31,310,424.69,309.16Zm8.1-17.3c-1,.42-1.88.57-2,.9a41.52,41.52,0,0,0-.65,5c0,.2.4.63.57.61,1.25-.19,2.93-.06,3.63-.82a4.78,4.78,0,0,0,.73-3.74C435,293,433.58,292.47,432.79,291.86Z" transform="translate(-21.71 -177.47)"/><path class="cls-1" d="M374.05,293.53c-4.31-2.18-8.46-2.86-11.92,1.21a8.91,8.91,0,0,0-.69,9.48c1.77,2.75,4.54,3.16,10.86,1.6.54,2.77.08,3.52-2.5,4.1-5.59,1.25-10.71-.95-12.63-5.45-2.67-6.28,1.62-14.48,8.35-15.57a22.17,22.17,0,0,1,6.44.29C374.29,289.51,375.09,291,374.05,293.53Z" transform="translate(-21.71 -177.47)"/><path class="cls-1" d="M140.14,305.63c.32,3.14-.26,3.94-3.26,4.34-4.29.56-8.39.16-11-3.8-2.47-3.69-2.19-7.72-.25-11.54,2.15-4.22,5.86-6.08,10.51-6a13.49,13.49,0,0,1,3.89.65c2.48.81,2.61,1.26,1.6,4.18-4.33-1.93-8.68-3-12,1.68-1.93,2.66-2,7.25-.11,9.46C132.53,308.18,136.28,306.88,140.14,305.63Z" transform="translate(-21.71 -177.47)"/><path class="cls-1" d="M26.88,309.25c.63-4.94,1.25-9.76,1.87-14.59a1.74,1.74,0,0,1,.05-.22c.45-1.74.91-3.48,1.36-5.22,2.84.2,5.76,0,8.47.71,2.2.56,2.95,2.83,2.87,5.1-.09,2.47-1,4.66-3.39,5.62a16.45,16.45,0,0,1-4.74.9c-1.25.1-1.82.5-1.87,1.77s-.31,2.31-.44,3.46C30.73,309.74,30.53,309.88,26.88,309.25Zm5.63-11c3.29.58,4.88-.28,5.14-2.7.22-2.12-.71-3.2-2.84-3.29S32.27,293.37,32.51,298.21Z" transform="translate(-21.71 -177.47)"/><path class="cls-1" d="M68,292.14c-.56-2.19,0-3.14,2.21-3.1,3.94.07,7.89,0,11.89,0,.41,2.3-.2,3.46-2.44,3.18-2-.25-2.9.35-3.09,2.52-.35,4-1,8-1.57,12-.41,3.08-.43,3.12-4.08,2.54.66-5.53,1.34-11.08,2-16.91Z" transform="translate(-21.71 -177.47)"/><path class="cls-1" d="M333.05,309.55c.6-4.89,1.14-9.35,1.7-13.81.18-1.38.39-2.76.62-4.14.47-2.81.87-3,4.09-2.05-.68,5.46-1.36,11-2.1,16.92,2.05,0,3.74-.09,5.41,0,.58.05,1.11.68,1.66,1-.49.67-.94,1.87-1.46,1.9C339.81,309.64,336.63,309.55,333.05,309.55Z" transform="translate(-21.71 -177.47)"/><path class="cls-1" d="M174.84,309.58c.84-6.65,1.55-12.88,2.47-19.08.33-2.25,2.23-1.24,4-1.38-.33,2.73-.62,5.31-.95,7.87s-.67,5.08-1.05,7.61c-.2,1.31.31,1.9,1.61,1.89,1.69,0,3.37,0,5,0,.71,2.33.06,3.21-2.11,3.13C180.93,309.51,178.07,309.58,174.84,309.58Z" transform="translate(-21.71 -177.47)"/><path class="cls-1" d="M144.68,309.19c.85-6.39,1.62-12.68,2.63-18.94.08-.52,1.74-.91,2.71-1.07.22,0,1,1.2.92,1.78-.63,5.31-1.4,10.59-2.09,15.89C148.48,309.78,148.28,309.94,144.68,309.19Z" transform="translate(-21.71 -177.47)"/><path class="cls-1" d="M189.28,309.5c.83-6.56,1.61-12.7,2.39-18.84.21-1.62,1.42-1.84,2.57-1.48a2.34,2.34,0,0,1,1.22,1.85q-1,8.55-2.23,17.06C192.85,310.66,190.93,309.26,189.28,309.5Z" transform="translate(-21.71 -177.47)"/><path class="cls-1" d="M223,222.34l.51.18.21.07.49.15.28.07.49.12.32.07.51.1.35.06.56.08.35,0,.64.05.32,0c.33,0,.66,0,1,0a41.82,41.82,0,0,0,4.54-.43l1.67-.21h.12l1.64-.17h.14l1.68-.09h.07c.59,0,1.17,0,1.76,0h0a4,4,0,0,0,.68-1.35c2.57-8.25,5.24-16.46,7.88-24.68.31-1,.68-2,1-2.94a10.24,10.24,0,0,1,1.59,3.34c3,9.57,6,19.15,9.08,28.69a2.2,2.2,0,0,0,.2.41h0c.46-.12.93-.23,1.39-.33l.39-.09,1.3-.27.53-.11,1.15-.23,1.57-.29c1.39-.26,2.7-.5,3.79-.75.4-.1.79-.21,1.17-.34l.35-.13c.26-.09.52-.19.77-.3l.35-.16c.28-.13.55-.26.81-.41l.19-.1c.32-.18.63-.36.93-.56l.22-.15.65-.45.23-.18c.22-.16.43-.33.63-.5l.1-.09a16,16,0,0,0,1.3-1.2h0a1.39,1.39,0,0,0-.06-.19q-7.77-19.87-15.36-39.81a2.42,2.42,0,0,0-2.72-1.84c-6.61.09-13.23.14-19.85.06a2.2,2.2,0,0,0-2.53,1.68c-2.36,6.42-4.82,12.81-7.24,19.21l-8.89,23.65.58.23Z" transform="translate(-21.71 -177.47)"/><path class="cls-1" d="M342.51,238.89a2.32,2.32,0,0,0-1.63-1.61c-9.11-.1-18.21-.09-27.32,0-.52,0-1.47.61-1.48,1-.11,3.46-.07,6.93-.07,10.64H327.9a9.66,9.66,0,0,1-3.82,9.4c-6.92,5.52-19.7,4.85-26.66-1.44-6.56-5.94-8-13.54-7.08-21.93s5-14.65,13-17.53c8.46-3.05,16.71-2.63,23.58,4.21A24.59,24.59,0,0,1,329,224.3c2.09-1.46,3.65-2.49,5.14-3.6s2.88-2.27,4.31-3.41a7.11,7.11,0,0,0-.59-1c-14.19-17.51-39.28-15.19-51.94-2.75-.76.75-1.58,1.49-2.31,2.31l-.73,3.31C280,232.25,272.35,238.27,265.46,241c3.53,10.26,7.13,20.7,10.7,31.16a2.48,2.48,0,0,0,2.65,2c6.31,0,12.61.08,18.92.12.61,0,1.62.05,1.76-.25.81-1.65,2-.79,3.16-.74,4.72.23,9.57,1.19,14.14.45C334.91,270.84,343,255.68,342.51,238.89Z" transform="translate(-21.71 -177.47)"/><path class="cls-1" d="M220.81,226.19c-3.17,8.32-6.22,16.28-9.43,24.7a16.49,16.49,0,0,1-.82-2.35q-1.45-9.67-2.87-19.35c-.94-6.44-1.92-12.88-2.82-19.33-.3-2.08-1.06-3.09-3.44-2.91a84.3,84.3,0,0,1-9.8,0,2.26,2.26,0,0,0-2.61,1.93c-1.63,5.11-3.43,10.16-5.08,15.26q-4.29,13.29-8.46,26.62a39.7,39.7,0,0,0-.82,4c-1.61-5.4-3.07-10.62-4.72-15.78Q165.1,224,160,209a3.13,3.13,0,0,0-2.09-1.88c-3.88-.18-7.78-.15-11.67,0a2.43,2.43,0,0,0-1.78,1.5c-1.2,7-2.28,13.92-3.34,20.89q-2.78,18.28-5.48,36.58c-.39,2.63-.7,5.26-1,7.87h13.16c2.08-17.58,4.14-34.94,6.22-52.47.23.77.44,1.41.62,2.06.87,3.3,1.58,6.64,2.62,9.88,3.76,11.76,7.66,23.47,11.45,35.22,1.86,5.78,1.8,5.76,7.92,5.57a2.08,2.08,0,0,0,2.27-1.74c2.33-7.24,4.82-14.43,7.18-21.67,2.68-8.27,5.29-16.56,7.89-24.85.39-1.23.56-2.52.84-3.79.73,4.09,1.05,8.11,1.54,12.11,1.5,12.48,3.12,24.94,4.56,37.43.24,2,1,2.64,2.91,2.61q9.33-.17,18.68-.11c1.5,0,2-.75,2.38-2,2.23-7.13,4.52-14.24,6.79-21.35l4.55-14.36C231.64,235.2,226.32,232.25,220.81,226.19Z" transform="translate(-21.71 -177.47)"/><path class="cls-1" d="M245.66,265.29s6.54-22,3.74-30.84c0,0-14.26,7.71-29.91-12.15a17.58,17.58,0,0,0,9.58,2.57c5.75-.1,13.41-3,18.22,1.87,0,0,0-15.89,3.27-19.63,0,0-.53,29.73.47,25.23h0c4.82-4.81,15-5.71,20.56-7a18.74,18.74,0,0,0,9.81-6.55c-5.61,25.24-29,22.9-29,22.9s2.81,12.62-1.4,22.89Z" transform="translate(-21.71 -177.47)"/></svg>